<?xml version="1.0" standalone="no"?>
<!DOCTYPE svg PUBLIC "-//W3C//DTD SVG 20010904//EN"
 "http://www.w3.org/TR/2001/REC-SVG-20010904/DTD/svg10.dtd">
<svg version="1.0" xmlns="http://www.w3.org/2000/svg"
 width="252.000000pt" height="252.000000pt" viewBox="0 0 252.000000 252.000000"
 preserveAspectRatio="xMidYMid meet">
<metadata>
Created by potrace 1.11, written by Peter Selinger 2001-2013
</metadata>
<g transform="translate(0.000000,252.000000) scale(0.100000,-0.100000)"
fill="#000000" stroke="none">
<path d="M1630 2397 c0 -8 4 -17 9 -19 5 -1 19 -19 31 -38 12 -19 19 -26 16
-15 -5 14 2 10 24 -13 27 -30 34 -48 31 -77 0 -6 13 -16 30 -22 28 -11 31 -10
40 13 11 31 11 37 1 30 -5 -3 -9 1 -9 9 0 8 4 12 9 9 4 -3 8 0 8 5 0 6 -5 11
-10 11 -6 0 -13 8 -17 18 -8 22 -62 72 -91 83 -51 20 -72 22 -72 6z"/>
<path d="M819 2393 c0 -5 -2 -21 -3 -38 -2 -16 -16 -58 -33 -93 -19 -39 -25
-61 -17 -58 15 6 29 -10 16 -18 -5 -3 -8 -17 -7 -30 2 -14 -5 -32 -16 -42 -20
-18 -40 -11 -22 7 6 6 9 18 6 25 -3 8 0 21 7 28 15 19 -14 36 -53 32 -14 -2
-24 1 -21 6 3 5 11 8 17 7 24 -3 37 1 37 12 0 6 -6 9 -14 6 -14 -6 -16 9 -3
29 4 7 -1 21 -11 33 -13 16 -20 18 -32 10 -13 -9 -12 -10 3 -5 9 3 17 1 17 -4
0 -10 -21 -14 -48 -11 -10 2 -12 -4 -6 -21 4 -13 7 -29 7 -35 0 -7 5 -13 10
-13 5 0 4 -7 -3 -15 -7 -8 -17 -15 -22 -15 -12 0 -38 26 -38 38 0 5 -7 15 -15
22 -12 10 -14 -1 -12 -85 1 -80 5 -98 19 -106 9 -5 19 -5 22 0 3 5 25 8 48 6
24 -1 48 2 55 7 7 5 14 5 18 -2 4 -6 1 -9 -7 -8 -7 2 -12 -3 -10 -10 2 -9 -2
-11 -10 -6 -19 12 -39 14 -32 3 3 -5 10 -7 15 -4 5 4 9 2 9 -3 0 -5 13 -9 30
-9 16 0 27 4 24 8 -3 5 10 25 29 45 26 29 36 34 42 23 5 -8 5 -11 1 -7 -13 11
-68 -54 -56 -66 7 -7 14 -6 23 3 10 11 9 12 -2 6 -9 -5 -12 -3 -9 6 3 8 15 13
27 13 17 -1 19 1 10 12 -9 11 -7 14 8 14 18 0 53 -32 53 -48 0 -4 13 -13 29
-19 27 -10 29 -9 34 16 5 24 4 24 -9 6 -17 -22 -19 -12 -3 17 8 15 8 19 0 14
-6 -4 -11 -2 -11 4 0 10 -67 55 -82 55 -5 0 -7 5 -5 10 1 6 5 9 10 8 4 -2 7 2
7 7 0 6 -6 10 -12 10 -17 1 9 16 42 24 l25 7 -23 -14 -24 -14 31 0 c16 0 28 4
25 9 -3 4 0 8 5 8 6 0 11 5 11 11 0 5 -4 7 -10 4 -5 -3 -10 3 -10 13 0 11 -7
25 -15 32 -8 6 -13 24 -12 40 2 22 5 26 15 18 9 -8 11 -7 6 6 -3 9 -10 16 -14
16 -4 0 -10 10 -14 23 -5 21 -45 55 -47 40z m45 -107 c-3 -8 -13 -13 -22 -12
-9 2 -23 -4 -30 -13 -11 -14 -11 -13 -2 6 6 13 14 22 18 22 21 -3 32 2 26 13
-4 7 -3 8 4 4 6 -4 9 -13 6 -20z m-28 -78 c-9 -12 -16 -17 -16 -10 0 19 4 27
13 25 4 -2 7 2 7 9 0 6 3 9 6 5 3 -3 -1 -16 -10 -29z m-237 -41 c8 -10 7 -14
-2 -14 -8 0 -14 6 -14 14 0 7 1 13 2 13 2 0 8 -6 14 -13z m14 -46 c3 -11 -1
-22 -7 -24 -7 -3 -13 5 -14 19 -2 29 14 32 21 5z m87 -2 c0 -4 -9 -7 -19 -6
-11 0 -18 4 -16 7 6 9 35 8 35 -1z"/>
<path d="M1277 2393 c-7 -11 18 -45 26 -36 4 3 7 -1 7 -10 0 -11 5 -14 17 -10
12 5 14 3 8 -7 -6 -10 -4 -12 9 -7 10 4 15 3 11 -3 -3 -6 1 -10 10 -10 9 0 13
-4 10 -10 -3 -5 -1 -10 4 -10 6 0 11 -20 11 -45 l0 -44 -82 -48 c-109 -64
-132 -73 -178 -73 -53 0 -66 -24 -40 -68 11 -18 25 -32 31 -32 6 0 8 -7 5 -16
-5 -14 -4 -15 8 -5 11 9 15 8 19 -4 5 -11 12 -13 31 -6 13 6 27 7 31 3 3 -3 3
1 -1 11 -4 11 0 19 10 23 9 3 13 10 10 15 -3 5 0 9 5 9 6 0 11 -6 11 -12 0 -7
9 2 20 20 11 17 22 32 25 32 3 0 -2 -11 -11 -25 -20 -31 -9 -33 16 -2 l19 22
-5 -29 c-3 -16 -9 -37 -15 -48 -6 -12 -6 -18 1 -19 5 -1 16 -2 23 -3 6 -1 10
-8 8 -16 -1 -8 -5 -41 -8 -72 l-6 -57 -58 -21 c-33 -13 -59 -28 -59 -34 0 -6
12 -36 26 -66 14 -30 28 -77 31 -105 5 -44 20 -68 39 -65 3 1 12 -7 21 -17 8
-10 12 -13 9 -6 -4 6 -2 14 4 18 5 3 10 2 10 -4 0 -6 7 -8 15 -5 8 4 15 10 15
16 0 5 -4 7 -8 4 -5 -3 -9 1 -9 9 0 10 4 12 12 5 7 -5 16 -6 20 -2 5 4 5 -2 1
-12 -6 -16 -4 -17 10 -5 9 7 23 14 32 15 8 2 19 9 23 16 6 9 9 10 9 1 0 -15
-35 -35 -45 -25 -5 4 -5 1 -1 -6 6 -11 13 -10 32 3 14 9 30 13 37 8 9 -5 8 -2
-1 9 -10 13 -10 19 3 31 17 17 20 32 6 22 -5 -3 -13 0 -17 6 -4 8 -3 9 4 5 7
-4 12 -1 12 6 0 10 2 10 9 -1 6 -9 11 -10 15 -2 12 18 25 3 19 -22 -5 -21 -5
-21 9 -3 8 10 20 16 26 12 11 -6 17 6 13 27 -1 4 7 3 17 -2 17 -9 19 -7 16 15
-2 18 2 24 13 22 9 -2 18 3 21 11 3 10 0 11 -9 5 -11 -6 -11 -4 0 10 13 15 13
19 0 27 -11 7 -10 9 5 9 12 0 16 5 13 14 -7 19 18 42 28 26 6 -10 8 -88 6
-197 -1 -31 -3 -33 -51 -39 -54 -7 -61 -15 -30 -37 11 -8 17 -17 12 -22 -4 -4
0 -6 8 -3 15 5 64 -25 55 -34 -8 -7 60 -3 73 5 6 5 18 5 25 1 6 -4 3 3 -8 16
-11 13 -14 20 -6 15 11 -6 13 -4 8 9 -4 10 -3 15 3 11 6 -3 10 -1 10 4 0 6 -6
11 -12 11 -9 0 -8 4 2 10 12 8 12 10 -5 10 -16 0 -17 2 -6 9 8 5 16 17 17 25
1 9 -2 13 -9 9 -6 -4 -8 0 -4 9 3 9 0 21 -6 27 -9 9 -8 11 6 6 10 -4 17 -2 17
4 0 6 -4 11 -10 11 -5 0 -10 5 -10 11 0 5 6 7 13 3 6 -4 3 3 -8 16 l-20 23 25
-13 c24 -13 24 -12 10 5 -14 17 -14 18 8 6 12 -7 20 -16 17 -21 -4 -6 1 -7 11
-3 10 3 15 2 12 -3 -3 -5 3 -17 14 -26 10 -10 18 -15 18 -12 0 4 7 1 15 -6 8
-7 12 -17 8 -24 -4 -6 0 -6 9 2 13 10 19 10 32 -3 9 -9 20 -14 25 -10 5 3 12
1 16 -5 4 -6 11 -8 16 -5 5 4 9 2 9 -4 0 -6 7 -7 17 -4 11 4 14 3 9 -5 -4 -8
-2 -10 8 -6 8 3 12 13 9 22 -4 14 -3 14 5 3 6 -8 20 -15 31 -16 16 -1 18 1 10
11 -8 10 -5 12 15 8 13 -2 28 0 31 6 4 6 1 9 -6 8 -6 -2 -14 3 -17 11 -3 9 0
11 9 6 8 -5 6 1 -5 13 -10 12 -28 24 -39 28 -16 5 -136 76 -244 144 -27 18
-36 56 -14 66 24 11 35 11 44 -1 5 -5 6 4 2 20 -6 29 -6 29 9 10 15 -20 15
-20 16 5 0 20 2 22 10 10 8 -13 11 -13 22 -1 11 11 11 13 -1 6 -10 -6 -12 -4
-7 4 5 7 14 10 21 7 21 -8 35 17 31 53 -3 28 -1 30 13 19 17 -14 -4 14 -51 66
-27 30 -27 30 -49 11 -11 -11 -30 -37 -40 -57 -16 -31 -59 -70 -59 -54 0 2 -3
13 -6 23 -5 15 -4 15 5 3 14 -20 25 -6 13 17 -8 13 -7 22 4 34 12 14 12 16 -1
16 -8 0 -11 -5 -8 -10 3 -6 1 -7 -5 -3 -9 5 -9 12 0 26 7 10 17 16 23 12 5 -3
4 2 -4 11 -9 12 -10 17 -2 17 14 0 11 42 -4 52 -6 5 -4 8 4 8 11 0 9 4 -5 15
-17 13 -17 16 -4 26 13 9 13 10 -1 6 -9 -3 -22 0 -28 6 -8 8 -22 2 -53 -20
-70 -49 -115 -69 -165 -72 -21 -1 -15 -30 11 -56 13 -13 22 -26 20 -28 -3 -3
2 -7 11 -11 9 -3 14 -2 11 3 -9 14 41 6 60 -9 11 -9 15 -10 10 -2 -4 6 -4 12
1 13 4 0 16 2 26 4 14 3 17 -5 17 -51 0 -51 -1 -54 -19 -44 -30 16 -54 12
-107 -16 -71 -37 -73 -42 -40 -69 30 -24 30 -24 18 -76 -13 -54 -27 -79 -45
-79 -5 0 -2 9 8 20 17 18 17 20 2 14 -10 -3 -17 -1 -17 5 0 6 5 11 10 11 6 0
1 9 -10 20 -11 11 -20 24 -20 29 0 6 -15 8 -32 7 -18 -2 -25 -1 -15 1 9 2 14
9 11 15 -4 6 -3 9 2 6 5 -3 14 0 21 7 10 11 10 15 0 19 -9 3 -8 8 3 16 13 10
12 11 -4 6 -13 -5 -17 -2 -13 8 7 17 -15 38 -33 34 -7 -2 -15 3 -18 11 -2 8 0
11 6 8 5 -4 15 0 22 8 7 8 15 13 19 11 4 -3 8 6 9 19 1 13 -3 27 -10 31 -7 5
-8 3 -3 -6 5 -9 4 -11 -4 -6 -6 4 -9 12 -5 17 9 15 -15 39 -40 40 -11 0 -15 3
-8 6 6 2 12 9 12 14 0 6 -5 7 -12 3 -7 -4 -8 -3 -4 4 4 6 14 8 23 5 10 -4 14
-2 9 5 -6 10 30 28 48 23 5 -1 3 6 -5 15 -13 16 -12 16 9 5 19 -10 23 -9 29 6
4 10 11 22 17 26 6 5 0 5 -14 2 -24 -7 -24 -7 -5 9 12 9 15 15 7 16 -7 0 -10
5 -7 10 3 6 1 10 -5 10 -6 0 -8 5 -5 10 3 6 2 10 -3 10 -15 0 -23 28 -10 36 7
5 8 2 3 -6 -5 -9 -4 -11 4 -6 6 4 9 11 6 16 -3 4 1 11 7 14 7 3 2 3 -12 0
l-25 -7 25 23 c14 12 18 20 9 17 -12 -4 -16 1 -15 21 2 43 -53 76 -135 80 -37
2 -69 0 -72 -5z m98 -362 c-3 -6 -11 -11 -16 -11 -5 0 -4 6 3 14 14 16 24 13
13 -3z m85 -75 c0 -2 -8 -10 -17 -17 -16 -13 -17 -12 -4 4 13 16 21 21 21 13z
m493 -47 c-8 -8 -13 -7 -18 2 -5 8 -4 10 3 5 7 -4 12 -2 12 5 0 7 3 9 7 6 4
-4 2 -12 -4 -18z m-573 -149 c0 -9 -44 -23 -74 -24 -11 -1 -21 6 -23 14 -3 10
-2 11 4 4 9 -13 45 -15 37 -2 -3 5 -10 6 -15 3 -5 -4 -9 -2 -9 3 0 15 32 24
44 12 17 -17 29 -11 15 8 -13 15 -12 16 4 3 9 -7 17 -17 17 -21z m30 9 c0 -14
-17 -10 -23 5 -4 10 -1 13 9 9 7 -3 14 -9 14 -14z m-11 -142 c-11 -20 -49 -38
-63 -30 -4 3 6 12 23 21 17 8 29 17 27 20 -3 3 -14 -1 -23 -9 -16 -13 -17 -12
-5 3 7 9 22 16 32 15 15 -1 17 -5 9 -20z m326 -205 c-3 -3 -11 0 -18 7 -9 10
-8 11 6 5 10 -3 15 -9 12 -12z"/>
<path d="M1330 1760 c0 -5 5 -10 11 -10 5 0 7 5 4 10 -3 6 -8 10 -11 10 -2 0
-4 -4 -4 -10z"/>
<path d="M640 2350 c-32 -7 -33 -8 -13 -15 13 -4 20 -12 17 -17 -4 -6 4 -3 17
5 24 16 27 17 55 17 8 0 12 5 9 10 -7 11 -33 11 -85 0z"/>
<path d="M710 2321 c0 -6 4 -12 8 -15 5 -3 9 1 9 9 0 8 -4 15 -9 15 -4 0 -8
-4 -8 -9z"/>
<path d="M759 2168 c-5 -9 -5 -48 -1 -43 8 7 13 45 7 45 -3 0 -6 -1 -6 -2z"/>
<path d="M601 2046 c-8 -10 -3 -12 23 -12 19 0 32 5 30 11 -6 15 -41 16 -53 1z"/>
<path d="M1975 1940 c3 -5 8 -10 11 -10 2 0 4 5 4 10 0 6 -5 10 -11 10 -5 0
-7 -4 -4 -10z"/>
<path d="M785 1891 c-5 -38 -10 -48 -21 -44 -17 6 -15 -15 2 -34 7 -7 11 -39
10 -73 -1 -33 2 -61 6 -61 4 -1 13 -2 18 -3 6 0 15 -8 20 -16 5 -8 10 -10 10
-5 0 6 -5 16 -12 23 -13 13 -20 84 -8 77 14 -8 19 22 7 36 -9 9 -7 9 6 -1 15
-11 20 -11 26 -1 5 7 8 -5 7 -28 -1 -23 -4 -41 -8 -41 -8 0 -3 -34 7 -51 9
-13 30 -6 30 11 0 7 6 14 13 16 7 1 8 0 2 -3 -5 -2 -8 -8 -5 -13 3 -5 -1 -15
-10 -23 -13 -13 -13 -16 1 -21 8 -3 12 -2 9 4 -3 6 -1 10 6 10 7 0 9 3 6 6 -3
4 -2 14 2 23 6 11 4 23 -5 36 -8 10 -14 26 -14 34 0 14 1 14 10 1 8 -12 10
-10 10 8 0 15 -4 21 -12 17 -7 -4 -5 0 4 8 14 11 15 16 5 27 -10 10 -9 12 3 8
11 -4 16 1 16 13 0 18 -9 24 -31 19 -5 -1 -1 8 9 19 13 15 15 21 6 21 -7 0
-10 3 -7 7 9 8 -12 33 -28 33 -9 0 -12 -12 -9 -40 3 -37 -19 -80 -34 -65 -4 3
0 10 8 15 13 8 12 10 -2 10 -9 0 -19 -8 -21 -17 -3 -10 -4 4 -2 32 5 87 -19
107 -30 26z"/>
<path d="M629 1901 c29 -40 41 -47 41 -22 0 13 -12 27 -31 37 l-32 16 22 -31z"/>
<path d="M719 1924 c0 -5 0 -30 1 -56 1 -27 -3 -48 -8 -48 -17 0 -22 13 -10
27 6 7 7 17 3 21 -4 4 -10 2 -12 -4 -2 -7 -28 -49 -58 -95 -59 -89 -63 -99
-39 -99 8 0 13 -4 10 -9 -3 -5 5 -11 19 -13 13 -3 22 -1 19 3 -3 5 -1 9 4 9
10 0 9 30 -2 48 -10 16 32 104 48 99 12 -4 14 -67 2 -112 -7 -29 -7 -29 13
-11 12 11 21 25 21 33 0 7 5 13 11 13 5 0 7 -4 4 -10 -3 -5 -1 -10 4 -10 14 0
14 17 2 25 -6 3 -6 17 1 36 8 22 8 33 0 38 -11 6 -11 35 0 46 9 9 -3 54 -18
66 -8 6 -14 8 -15 3z m-69 -228 c0 -3 -4 -8 -10 -11 -5 -3 -10 -1 -10 4 0 6 5
11 10 11 6 0 10 -2 10 -4z"/>
<path d="M830 1880 c-9 -6 -10 -10 -3 -10 6 0 15 5 18 10 8 12 4 12 -15 0z"/>
<path d="M540 1838 c0 -6 11 -19 25 -30 14 -11 23 -23 21 -27 -3 -4 1 -8 9 -8
10 0 12 4 5 12 -5 7 -7 15 -3 18 9 9 -14 34 -37 40 -11 3 -20 1 -20 -5z"/>
<path d="M1825 1830 c-3 -5 -1 -10 4 -10 6 0 11 5 11 10 0 6 -2 10 -4 10 -3 0
-8 -4 -11 -10z"/>
<path d="M685 1779 c-4 -6 -5 -12 -2 -15 2 -3 7 2 10 11 7 17 1 20 -8 4z"/>
<path d="M663 1731 c-10 -16 -9 -20 3 -25 9 -3 12 -2 9 5 -4 5 -1 16 5 24 7 8
8 15 4 15 -5 0 -15 -9 -21 -19z"/>
<path d="M820 1740 c-8 -5 -12 -12 -9 -15 4 -3 12 1 19 10 14 17 11 19 -10 5z"/>
<path d="M730 1680 c0 -11 2 -20 4 -20 2 0 6 9 9 20 3 11 1 20 -4 20 -5 0 -9
-9 -9 -20z"/>
<path d="M792 1628 c-24 -30 -72 -130 -66 -139 10 -18 -6 -86 -22 -86 -8 0
-14 6 -14 12 0 7 -9 20 -20 30 -19 17 -19 18 3 35 18 15 19 20 8 33 -7 9 -10
20 -8 25 3 4 2 13 -2 20 -5 8 -17 0 -39 -27 -24 -30 -33 -53 -37 -92 -4 -50
-3 -51 20 -46 14 2 22 1 20 -3 -2 -4 5 -17 17 -30 l21 -22 14 32 c7 18 16 30
20 26 14 -13 14 -56 0 -61 -7 -3 -14 -19 -15 -35 -2 -23 1 -28 13 -24 8 4 14
11 13 18 -1 6 2 21 6 33 6 19 11 21 26 13 13 -7 19 -6 23 4 6 15 57 28 57 15
0 -5 6 -9 14 -9 8 0 17 -7 20 -16 3 -8 10 -12 16 -9 5 3 10 2 10 -3 0 -6 6
-12 14 -15 12 -5 12 0 5 26 -5 18 -9 33 -9 33 0 1 -9 0 -20 -3 -12 -3 -20 0
-20 6 0 7 5 9 12 5 8 -5 8 -3 2 7 -11 17 -13 80 -3 73 4 -2 6 -15 4 -29 -1
-14 1 -28 5 -30 4 -3 6 12 3 33 -2 20 -4 49 -4 64 0 30 -22 53 -43 45 -12 -5
-14 1 -10 29 5 42 -17 82 -34 62z m18 -68 c0 -5 -7 -10 -15 -10 -8 0 -15 -4
-15 -10 0 -5 8 -7 18 -4 9 3 6 -1 -8 -9 -32 -20 -37 -14 -16 18 17 25 36 33
36 15z m-130 -64 c0 -6 -5 -4 -10 4 -9 13 -12 13 -21 -2 -5 -10 -17 -18 -26
-18 -13 0 -12 5 7 25 18 19 26 22 37 14 7 -6 13 -17 13 -23z m166 9 c-3 -20
-20 -20 -24 -1 -2 9 3 16 11 16 9 0 14 -7 13 -15z m-76 -22 c0 -5 -5 -15 -10
-23 -7 -12 -9 -10 -7 8 1 19 17 33 17 15z m64 -48 c-11 -8 -14 -15 -6 -15 6 0
12 -7 12 -15 0 -13 -4 -16 -25 -15 -3 0 -18 -6 -34 -14 -33 -18 -41 -13 -41
25 0 31 25 47 27 18 1 -10 -2 -19 -8 -19 -5 0 -9 -4 -9 -9 0 -13 33 -6 38 8 3
9 7 9 17 1 8 -7 15 -7 19 -1 4 5 2 13 -4 16 -13 8 6 35 23 35 6 0 2 -7 -9 -15z
m-164 -36 c0 -5 4 -7 10 -4 6 4 7 -1 3 -11 -4 -11 -8 -13 -11 -6 -2 7 -7 10
-11 8 -4 -3 -8 1 -8 9 0 8 4 15 9 15 4 0 8 -5 8 -11z"/>
<path d="M1515 1589 c-4 -6 -5 -12 -2 -15 2 -3 7 2 10 11 7 17 1 20 -8 4z"/>
<path d="M836 1582 c-2 -4 -1 -14 4 -22 7 -11 9 -9 7 8 -1 24 -3 26 -11 14z"/>
<path d="M890 1490 c-13 -8 -13 -11 3 -27 10 -11 17 -13 17 -5 0 7 -5 12 -11
12 -8 0 -8 5 1 15 14 17 11 19 -10 5z"/>
<path d="M680 1460 c-9 -6 -10 -10 -3 -10 6 0 15 5 18 10 8 12 4 12 -15 0z"/>
<path d="M1636 1442 c-3 -5 1 -9 9 -9 8 0 12 4 9 9 -3 4 -7 8 -9 8 -2 0 -6 -4
-9 -8z"/>
<path d="M610 1376 c0 -2 7 -7 16 -10 8 -3 12 -2 9 4 -6 10 -25 14 -25 6z"/>
<path d="M559 1348 c4 -13 7 -30 6 -40 -3 -19 27 -30 46 -16 11 8 11 9 -2 5
-12 -4 -20 5 -29 34 -7 21 -17 39 -21 39 -5 0 -5 -10 0 -22z"/>
<path d="M597 1340 c-3 -11 -1 -18 4 -14 5 3 9 0 9 -6 0 -6 4 -9 9 -6 5 4 11
1 13 -6 3 -7 7 -5 11 6 4 11 3 15 -4 11 -6 -4 -13 2 -16 14 -7 27 -19 27 -26
1z"/>
<path d="M787 1344 c-9 -9 4 -35 14 -28 5 3 9 0 9 -7 0 -7 7 -4 15 7 13 16 16
17 25 4 15 -23 12 -30 -16 -30 -28 0 -65 17 -76 34 -5 7 -10 8 -18 0 -7 -7 4
-24 35 -54 36 -35 47 -42 57 -31 11 10 9 11 -7 6 -14 -5 -13 -2 5 8 13 8 32
14 42 12 9 -2 21 2 27 9 20 23 -90 92 -112 70z m23 -84 c0 -5 -2 -10 -4 -10
-3 0 -8 5 -11 10 -3 6 -1 10 4 10 6 0 11 -4 11 -10z"/>
<path d="M1532 1301 c-9 -5 -13 -42 -13 -120 0 -62 -5 -123 -10 -135 -13 -28
-54 -53 -100 -61 -19 -4 -41 -8 -49 -10 -8 -2 -34 -4 -57 -4 -48 -1 -56 -18
-24 -50 11 -11 17 -21 15 -24 -3 -2 2 -7 11 -11 9 -3 14 -2 11 2 -3 5 1 9 8 9
8 0 12 -8 9 -21 -3 -13 -1 -17 4 -10 4 6 16 14 27 17 14 6 17 3 12 -8 -3 -8
-1 -15 3 -15 5 0 11 5 13 12 2 6 12 12 21 14 9 1 15 -2 11 -7 -3 -5 -10 -6
-16 -3 -7 4 -8 2 -4 -4 5 -8 13 -9 25 -3 20 11 61 4 61 -10 0 -5 -26 -22 -58
-38 -76 -38 -89 -54 -72 -86 7 -13 17 -22 22 -19 21 13 4 -16 -32 -54 -45 -46
-50 -77 -20 -112 11 -13 20 -27 20 -33 0 -5 6 -4 14 2 11 10 16 8 21 -9 12
-38 -35 -96 -188 -233 -48 -43 -87 -83 -87 -89 0 -6 13 -8 33 -5 17 3 26 3 20
1 -10 -4 -10 -9 1 -20 21 -20 28 -17 21 9 -4 13 -3 17 2 10 7 -9 17 -8 41 7
34 21 58 28 32 9 -13 -9 -13 -10 0 -6 8 2 14 10 13 16 -2 6 2 11 8 11 5 0 7 5
3 11 -4 8 0 8 15 0 18 -10 20 -9 14 6 -6 16 -5 16 10 4 15 -12 17 -12 11 4 -5
12 -4 16 4 11 6 -3 13 3 17 14 4 11 10 18 15 15 5 -3 16 7 24 22 l15 28 1 -25
c8 -150 18 -187 46 -176 15 6 14 -15 -1 -27 -5 -4 0 -6 12 -4 12 2 26 7 30 12
5 4 1 5 -7 0 -8 -5 -12 -4 -7 0 15 17 39 14 33 -3 -5 -13 -2 -12 9 2 11 14 15
16 15 5 0 -12 2 -12 10 1 8 13 10 12 10 -4 0 -20 0 -20 16 0 8 10 13 14 9 7
-3 -7 4 -17 16 -23 17 -10 20 -9 14 1 -5 8 -4 10 4 5 6 -4 19 -2 28 6 12 9 15
9 9 1 -4 -7 -3 -13 2 -13 20 0 33 51 17 62 -6 5 -3 8 8 8 9 0 17 4 17 10 0 5
-7 7 -14 4 -13 -5 -13 -2 -3 19 6 14 16 23 21 20 5 -4 6 -1 2 5 -4 6 -12 10
-19 8 -7 -1 -9 -1 -4 1 4 3 4 10 1 15 -4 7 -2 8 4 4 7 -4 13 -1 14 6 0 7 2 20
3 28 1 8 -6 24 -14 34 -15 18 -15 18 9 6 23 -12 24 -12 11 3 -7 10 -10 17 -5
17 5 0 3 4 -4 9 -11 7 -10 9 3 14 9 4 13 3 10 -2 -3 -5 4 -12 15 -16 11 -4 17
-11 14 -17 -4 -6 -3 -8 2 -5 13 7 39 -9 39 -24 0 -7 9 -13 20 -15 11 -2 33
-18 49 -36 22 -26 26 -28 16 -8 -13 24 -12 25 7 7 11 -9 23 -14 28 -10 4 5 5
-3 1 -17 -3 -14 -3 -19 0 -12 3 6 11 9 16 6 7 -4 8 -2 4 4 -5 8 -2 10 8 6 9
-3 16 -11 17 -18 0 -6 4 -2 9 9 8 19 9 19 9 1 1 -11 4 -16 8 -13 3 4 13 1 22
-5 13 -10 14 -10 4 2 -18 19 -16 26 6 26 11 0 17 -4 15 -8 -3 -4 0 -8 5 -8 6
0 11 4 11 10 0 5 6 7 14 4 7 -3 21 2 30 11 9 9 22 13 28 10 7 -4 4 1 -7 10
-11 9 -19 18 -17 20 7 15 -1 25 -25 31 -33 7 -185 86 -263 136 -84 54 -165
121 -152 126 7 2 9 9 6 14 -4 7 -2 8 5 4 6 -4 9 -11 7 -15 -3 -4 2 -8 10 -8 9
0 13 6 9 15 -5 13 -3 13 12 1 15 -12 16 -12 10 4 -10 25 2 21 13 -6 7 -18 9
-18 9 -4 1 12 5 16 14 10 6 -4 22 -8 34 -9 19 -1 21 2 11 20 -11 20 -10 20 7
6 10 -8 16 -10 12 -3 -4 6 -1 14 5 16 10 4 10 6 1 6 -7 1 -10 7 -7 14 6 16
-53 76 -75 78 -9 1 -23 2 -31 3 -8 0 -31 -2 -50 -7 -53 -12 -87 -17 -72 -11 6
3 9 11 5 17 -4 7 0 8 12 3 15 -5 16 -4 5 9 -10 12 -9 15 6 16 11 1 24 0 29 -1
6 -1 7 2 3 6 -4 4 0 13 10 21 9 8 12 12 6 9 -6 -3 -11 1 -11 9 0 12 4 12 20
-2 11 -10 17 -13 14 -7 -4 7 0 14 7 17 8 3 17 1 20 -6 2 -7 5 -2 5 11 1 13 5
20 11 17 6 -4 7 -11 4 -17 -4 -7 -2 -8 4 -4 8 4 8 15 2 31 -8 20 -6 23 7 18
12 -5 10 2 -7 25 -13 18 -27 33 -32 33 -4 1 -14 2 -20 3 -7 1 -27 -4 -44 -11
-30 -12 -31 -11 -26 13 5 30 13 35 53 36 21 1 33 7 39 22 7 17 9 17 9 4 1 -11
6 -15 16 -12 8 4 12 10 9 15 -10 16 9 9 22 -8 13 -17 14 -17 8 0 -4 11 -1 17
9 17 20 0 41 26 27 35 -6 3 -7 11 -4 17 4 6 2 8 -4 4 -6 -3 -13 3 -17 13 -7
24 -31 33 -65 25 -92 -20 -117 -16 -87 15 10 12 8 13 -8 7 -16 -6 -17 -5 -8 5
9 9 9 16 2 25 -7 8 -5 16 4 26 17 17 18 51 1 44 -10 -4 -11 1 -4 19 8 20 6 25
-6 25 -8 0 -13 4 -10 9 3 4 -2 15 -12 23 -27 23 -37 27 -50 19z m263 -280 c3
-5 1 -12 -5 -16 -5 -3 -10 1 -10 9 0 18 6 21 15 7z m-110 -59 c-3 -3 -11 0
-18 7 -9 10 -8 11 6 5 10 -3 15 -9 12 -12z m-64 -195 c-10 -9 -11 -8 -5 6 3
10 9 15 12 12 3 -3 0 -11 -7 -18z m153 -165 c3 -5 -1 -9 -9 -9 -8 0 -12 4 -9
9 3 4 7 8 9 8 2 0 6 -4 9 -8z m-197 -60 c7 -4 15 -22 19 -39 5 -26 3 -32 -17
-39 -13 -4 -38 -8 -55 -9 -24 -1 -31 2 -29 14 1 9 8 15 14 14 6 -2 11 2 11 8
0 5 4 7 10 4 6 -3 7 1 4 10 -4 8 -1 22 6 30 14 17 20 18 37 7z m-7 -203 c0 -8
4 -8 14 0 11 9 13 6 9 -21 -2 -18 -4 -41 -4 -52 0 -28 -10 -12 -16 26 -3 18
-10 39 -15 46 -7 8 -7 12 1 12 6 0 11 -5 11 -11z m-58 -8 c12 6 24 7 29 2 5
-5 1 -9 -9 -9 -9 -1 -23 -3 -31 -5 -7 -2 -15 2 -16 9 -2 7 -1 8 2 2 3 -6 11
-6 25 1z m574 -56 c-1 -8 -8 -21 -16 -28 -10 -10 -11 -9 -4 3 5 8 9 18 10 23
3 14 4 17 8 17 2 0 3 -7 2 -15z m-498 -53 c-4 -21 -85 -23 -101 -2 -10 13 -10
13 5 1 15 -11 19 -11 24 4 5 13 9 14 16 3 7 -10 10 -10 18 4 12 20 42 12 38
-10z"/>
<path d="M1545 530 c-3 -6 1 -7 9 -4 18 7 21 14 7 14 -6 0 -13 -4 -16 -10z"/>
<path d="M730 1280 c0 -5 5 -10 10 -10 6 0 10 5 10 10 0 6 -4 10 -10 10 -5 0
-10 -4 -10 -10z"/>
<path d="M908 1264 c-5 -5 -25 -10 -49 -13 -3 -1 -6 -8 -6 -17 0 -15 1 -15 13
0 9 13 13 14 17 4 4 -10 6 -10 6 1 1 11 4 11 18 0 14 -12 15 -12 9 0 -5 8 -3
17 5 22 8 5 9 9 3 9 -6 0 -13 -3 -16 -6z"/>
<path d="M688 1138 c-8 -18 -45 -65 -82 -104 -36 -40 -66 -75 -66 -78 0 -14
26 -4 38 14 14 22 37 17 28 -6 -3 -8 -1 -14 4 -14 5 0 10 -10 12 -22 2 -13 9
-22 16 -21 6 2 12 -4 12 -12 0 -8 -3 -15 -8 -15 -4 0 -5 -24 -2 -52 3 -38 9
-53 20 -53 9 0 14 -9 13 -20 -1 -17 2 -15 19 8 11 15 24 25 29 21 5 -3 7 -10
4 -15 -4 -5 -1 -9 5 -9 6 0 8 -4 5 -10 -3 -5 -1 -10 5 -10 7 0 10 6 7 14 -3 7
0 19 6 25 14 14 18 62 5 78 -5 6 -5 14 0 17 5 3 8 19 7 36 -1 16 2 30 6 30 5
0 6 6 3 13 -3 9 8 13 36 14 28 1 38 -2 34 -9 -5 -7 -2 -9 9 -5 9 3 17 1 20 -6
2 -6 14 -12 28 -12 20 -1 25 3 25 26 1 20 -5 30 -25 40 -14 7 -29 12 -33 11
-11 -3 -134 120 -141 141 -9 26 -21 21 -39 -15z m30 -51 c2 -9 -2 -17 -8 -17
-6 0 -8 6 -4 13 7 13 -22 -17 -44 -45 -10 -12 -10 -18 -1 -24 7 -4 9 -3 6 3
-3 5 -1 10 6 10 39 1 67 21 59 43 -3 8 5 2 18 -13 12 -15 20 -30 17 -33 -10
-10 -42 -11 -53 -2 -8 5 -18 2 -29 -9 -20 -20 -49 -27 -38 -10 4 7 -1 6 -10
-2 -32 -26 -19 13 18 53 19 21 35 43 35 48 0 16 25 3 28 -15z m33 -110 c-8 -8
-14 -7 -23 2 -10 11 -10 13 0 7 6 -4 12 -2 12 4 0 6 5 8 11 4 8 -4 8 -9 0 -17z
m-85 -16 c-13 -15 -14 -20 -4 -24 9 -4 9 -6 1 -6 -20 -2 -24 17 -7 33 22 23
31 20 10 -3z m249 0 c3 -5 2 -12 -3 -15 -5 -3 -9 1 -9 9 0 17 3 19 12 6z
m-224 -65 c-20 -11 -21 -14 -6 -20 9 -3 21 -4 26 0 5 3 9 0 9 -5 0 -13 -47
-15 -54 -2 -11 16 4 37 27 38 22 2 22 2 -2 -11z m29 -67 c0 -4 -4 -11 -10 -14
-5 -3 -10 -1 -10 6 0 8 -5 7 -17 -2 -16 -12 -17 -12 -6 2 13 16 43 22 43 8z"/>
<path d="M784 941 c0 -11 5 -17 13 -14 10 4 11 9 2 19 -15 18 -15 18 -15 -5z"/>
<path d="M771 876 c-8 -10 -9 -16 -1 -21 5 -3 10 -5 11 -3 4 18 7 38 4 38 -1
0 -8 -6 -14 -14z"/>
<path d="M761 776 c-10 -11 -9 -14 1 -12 14 2 23 15 15 22 -2 2 -10 -2 -16
-10z"/>
<path d="M705 769 c-4 -6 -5 -12 -2 -15 2 -3 7 2 10 11 7 17 1 20 -8 4z"/>
<path d="M866 673 c-1 -1 -85 -4 -186 -7 -102 -4 -196 -8 -210 -11 l-25 -6 1
-257 c1 -297 1 -295 13 -288 5 3 11 -4 14 -16 5 -19 8 -20 23 -7 13 10 16 11
10 1 -10 -16 25 -13 36 3 5 6 8 5 8 -2 0 -17 27 -17 33 0 4 9 6 9 6 -1 1 -8 6
-10 14 -5 18 11 38 13 31 2 -3 -5 -10 -6 -16 -3 -7 4 -8 2 -4 -4 4 -8 15 -8
31 -2 17 7 25 6 25 -1 0 -7 11 -4 26 6 15 9 23 12 20 6 -4 -6 -1 -11 8 -11 8
0 17 6 19 13 4 9 6 8 6 -2 1 -11 4 -11 18 0 11 10 14 10 9 2 -4 -8 -1 -13 9
-13 10 0 13 5 9 13 -4 6 1 5 12 -4 20 -17 54 -15 54 4 0 6 6 3 13 -8 11 -14
16 -15 22 -5 6 9 4 11 -5 5 -8 -5 -11 -4 -6 3 6 11 29 7 51 -8 18 -12 77 -3
87 14 5 9 15 16 23 16 7 0 12 8 10 18 -2 9 -4 17 -5 17 -1 0 -3 10 -4 22 -1
12 1 20 6 17 4 -3 8 -1 8 5 0 5 -6 12 -12 14 -10 4 -9 6 1 6 11 1 11 4 1 16
-10 12 -9 15 4 15 10 0 14 5 11 10 -4 6 -11 8 -16 5 -5 -4 -6 3 0 17 10 28 4
50 -12 42 -7 -3 -4 1 6 9 14 11 15 16 5 20 -9 4 -10 6 -1 6 7 1 10 8 7 16 -4
8 -11 12 -18 9 -6 -3 0 5 14 17 17 16 20 20 7 16 -10 -4 -16 -3 -12 2 3 5 1
12 -4 16 -14 8 -1 36 13 28 6 -3 2 4 -8 16 -13 14 -15 20 -5 16 11 -4 14 4 14
34 1 31 -2 38 -15 33 -12 -4 -13 -2 -2 9 6 7 12 19 12 27 0 8 -5 10 -12 6 -10
-6 -10 -4 0 7 14 16 16 33 2 24 -5 -3 -10 -1 -10 4 0 6 5 11 10 11 6 0 1 9
-11 21 -16 16 -34 21 -90 22 -39 1 -72 1 -73 0z m181 -158 c0 -8 -4 -12 -9 -9
-5 3 -6 10 -3 15 9 13 12 11 12 -6z"/>
<path d="M1046 418 c3 -5 10 -6 15 -3 13 9 11 12 -6 12 -8 0 -12 -4 -9 -9z"/>
<path d="M1636 92 c-3 -5 1 -9 9 -9 8 0 12 4 9 9 -3 4 -7 8 -9 8 -2 0 -6 -4
-9 -8z"/>
<path d="M1030 80 c0 -5 4 -10 9 -10 6 0 13 5 16 10 3 6 -1 10 -9 10 -9 0 -16
-4 -16 -10z"/>
</g>
</svg>
